<svg height='100px' width='100px'  fill="#000000" xmlns="http://www.w3.org/2000/svg" xmlns:xlink="http://www.w3.org/1999/xlink" version="1.1" x="0px" y="0px" viewBox="0 0 64 64" style="enable-background:new 0 0 64 64;" xml:space="preserve"><g><g><path d="M7.835,8.986L7,8.847v2.174C7.397,11.006,7.746,11,8,11s0.603,0.006,1,0.022V9H8C7.945,9,7.89,8.996,7.835,8.986z"></path><ellipse cx="8" cy="13.5" rx="4.343" ry="0.5"></ellipse><polygon points="20.781,59 20.281,61 23.719,61 23.219,59   "></polygon><path d="M9,17v-1.022C8.603,15.994,8.254,16,8,16s-0.603-0.006-1-0.022V21c0,3.519,2.613,6.432,6,6.92v-6.021    C10.721,21.434,9,19.414,9,17z"></path><polygon points="17.929,7 24,6.133 24,6 24,5.867 17.929,5 8.083,5 3,5.847 3,6.153 8.083,7   "></polygon><path d="M8,3h1V2H7v1.153l0.835-0.139C7.89,3.004,7.945,3,8,3z"></path><path d="M56.165,3.014L57,3.153V2h-2v1h1C56.055,3,56.11,3.004,56.165,3.014z"></path><path d="M38,4c0-0.551-0.449-1-1-1H27c-0.551,0-1,0.449-1,1v1h12V4z"></path><path d="M28.198,27h7.607C33.342,23.844,32,20.008,32,15.958C32,20.013,30.655,23.854,28.198,27z"></path><path d="M28,17c1.103,0,2-0.897,2-2s-0.897-2-2-2v-2c2.206,0,4,1.794,4,4c0-2.206,1.794-4,4-4v2c-1.103,0-2,0.897-2,2s0.897,2,2,2    s2-0.897,2-2V7H26v8C26,16.103,26.897,17,28,17z"></path><polygon points="40.781,59 40.281,61 43.719,61 43.219,59   "></polygon><path d="M15,20v10h1c0.551,0,1-0.449,1-1v-8c0-0.551-0.449-1-1-1H15z"></path><circle cx="32" cy="43" r="4"></circle><path d="M40.465,29h-16.93l-1.474,2.21c-5.119,7.678-7.896,16.579-8.054,25.79h35.985c-0.159-9.211-2.935-18.111-8.054-25.79    L40.465,29z M32,55c-6.617,0-12-5.383-12-12s5.383-12,12-12s12,5.383,12,12S38.617,55,32,55z"></path><path d="M53,14v1h6v-1c0-0.551-0.449-1-1-1h-4C53.449,13,53,13.449,53,14z"></path><path d="M60,17h-8c-0.551,0-1,0.449-1,1v1h10v-1C61,17.449,60.551,17,60,17z"></path><path d="M56.165,8.986C56.11,8.996,56.055,9,56,9h-1v2h2V8.847L56.165,8.986z"></path><polygon points="55.917,5 46.071,5 40,5.867 40,6 40,6.133 46.071,7 55.917,7 61,6.153 61,5.847   "></polygon><path d="M32,33c-5.514,0-10,4.486-10,10s4.486,10,10,10s10-4.486,10-10S37.514,33,32,33z M37,37h2v2h-2V37z M31,34h2v2h-2V34z     M25,37h2v2h-2V37z M23,44v-2h2v2H23z M27,49h-2v-2h2V49z M33,52h-2v-2h2V52z M32,49c-3.309,0-6-2.691-6-6s2.691-6,6-6    s6,2.691,6,6S35.309,49,32,49z M39,49h-2v-2h2V49z M41,44h-2v-2h2V44z"></path></g><g><rect x="1" y="35" width="8" height="2"></rect></g><g><rect x="1" y="38" width="8" height="2"></rect></g><path d="M3,31V15.379c-1.136-0.368-2-0.95-2-1.879V31c0,1.654,1.346,3,3,3h5v-2H4C3.449,32,3,31.551,3,31z"></path><path d="M13.67,45H9v-1c0-1.654-1.346-3-3-3H1v2h5c0.551,0,1,0.449,1,1v1H5c-2.206,0-4,1.794-4,4s1.794,4,4,4s4-1.794,4-4v-2h4.184   C13.332,46.33,13.494,45.663,13.67,45z M7,49c0,1.103-0.897,2-2,2s-2-0.897-2-2s0.897-2,2-2h2V49z"></path></g></svg>